<svg width="722" height="722" xmlns="http://www.w3.org/2000/svg" xmlns:xlink="http://www.w3.org/1999/xlink" overflow="hidden"><defs><clipPath id="clip0"><path d="M279-1 1001-1 1001 721 279 721Z" fill-rule="evenodd" clip-rule="evenodd"/></clipPath><clipPath id="clip1"><path d="M280 0 1000 0 1000 720 280 720Z" fill-rule="evenodd" clip-rule="evenodd"/></clipPath><clipPath id="clip2"><path d="M280 0 1000 0 1000 720 280 720Z" fill-rule="evenodd" clip-rule="evenodd"/></clipPath><clipPath id="clip3"><path d="M280 0 1000 0 1000 720 280 720Z" fill-rule="evenodd" clip-rule="evenodd"/></clipPath></defs><g clip-path="url(#clip0)" transform="translate(-279 1)"><path d="M362 360C362 206.465 486.465 82 640 82 793.535 82 918 206.465 918 360 918 513.535 793.535 638 640 638 486.465 638 362 513.535 362 360Z" fill="#FFFFFF" fill-rule="evenodd" fill-opacity="0.2"/><g clip-path="url(#clip1)"><g clip-path="url(#clip2)"><g clip-path="url(#clip3)"><path d="M642.985 1.79104C442.687 0 280 162.687 281.791 362.985 283.582 557.612 442.388 716.418 637.015 718.209 837.313 720 1000 557.313 998.209 357.015 996.418 162.388 837.612 3.58209 642.985 1.79104ZM551.94 177.91C552.836 175.224 554.925 173.433 558.507 174.328 565.075 175.821 617.91 187.164 617.91 187.164 617.91 187.164 727.761 170.448 731.642 169.552 734.925 168.955 737.313 170.746 737.91 173.731 738.209 174.925 756.716 237.313 772.836 291.642L515.522 291.642C532.239 239.403 550.746 180.896 551.94 177.91ZM808.358 486.269C805.97 522.687 776.418 552.239 740 554.627 697.313 557.313 662.09 523.582 662.09 481.493 662.09 479.403 662.09 477.313 662.388 475.224 656.418 473.134 649.851 472.239 643.284 472.239 636.418 472.239 629.851 473.433 623.284 475.522 623.582 477.612 623.582 479.403 623.582 481.493 623.582 523.582 588.358 557.313 545.672 554.627 509.254 552.239 479.701 522.687 477.313 486.269 474.925 443.881 508.657 408.358 550.448 408.358 580.896 408.358 607.164 427.164 618.209 453.731 626.269 451.343 634.627 449.851 643.284 449.851 651.642 449.851 659.701 451.045 667.463 453.433 678.507 426.866 704.478 408.358 735.224 408.358 777.313 408.358 811.045 443.881 808.358 486.269ZM878.209 383.881 408.358 383.881C407.761 383.881 407.463 382.985 408.06 382.687 423.582 374.627 513.731 330.149 643.881 330.149 774.328 330.149 863.284 374.328 878.507 382.687 879.104 382.985 878.806 383.881 878.209 383.881Z" fill="#03001D"/><path d="M787.164 481.791C787.164 510.477 763.91 533.731 735.224 533.731 706.538 533.731 683.284 510.477 683.284 481.791 683.284 453.105 706.538 429.851 735.224 429.851 763.91 429.851 787.164 453.105 787.164 481.791Z" fill="#03001D"/><path d="M602.687 481.791C602.687 510.477 579.432 533.731 550.746 533.731 522.06 533.731 498.806 510.477 498.806 481.791 498.806 453.105 522.06 429.851 550.746 429.851 579.432 429.851 602.687 453.105 602.687 481.791Z" fill="#03001D"/></g></g></g></g></svg>